# xmcd CD database file
#
# Track frame offsets:
#	150
#	12911
#	25258
#	38325
#	51471
#	65086
#	76390
#	90658
#	104437
#	117535
#	130526
#	144362
#	156871
#	169420
#	182270
#	195855
#	207973
#	221507
#	234371
#	247701
#
# Disc length: 3443 seconds
#
# Revision: 2
# Processed by: cddbd v1.5.1PL0 Copyright (c) Steve Scherf et al.
# Submitted via: CDex 1.51
#
DISCID=030d7114
DTITLE=Billy Holiday - Great Lady Day, The CD 1
DYEAR=2001
DGENRE=Jazz
TTITLE0=Sunbonnet Blue, A 
TTITLE1=It's Too Hot For Words
TTITLE2=What a Night, What A Moon, What A Girl
TTITLE3=You Let Me Down
TTITLE4=Mood That I'm In, The 
TTITLE5=How Could You
TTITLE6=I'll Get By
TTITLE7=Sun Showers
TTITLE8=Sailboat In The Moonlight, A 
TTITLE9=Without Your Love
TTITLE10=Getting Some Fun Out Of Life
TTITLE11=I Can't Believe That You're In Love With Me
TTITLE12=Sugar
TTITLE13=Them There Eyes
TTITLE14=Night And Day
TTITLE15=What Is This Going To Get Us
TTITLE16=Body And Soul
TTITLE17=Falling In Love Again, Can't Help It
TTITLE18=Let's Do It
TTITLE19=Romance In The Dark
EXTD=Digitally remastered, Two Compact Discs YEAR: 2001
EXTT0=
EXTT1=
EXTT2=
EXTT3=
EXTT4=
EXTT5=
EXTT6=
EXTT7=
EXTT8=
EXTT9=
EXTT10=
EXTT11=
EXTT12=
EXTT13=
EXTT14=
EXTT15=
EXTT16=
EXTT17=
EXTT18=
EXTT19=
PLAYORDER=
